# xmcd
#
# Track frame offsets:
#	150
#	16180
#	29157
#	49525
#	63036
#	76916
#	91604
#	104466
#	125663
#	144401
#	169331
#	189795
#	207308
#	218371
#	240138
#
# Disc length: 3515 seconds
#
# Revision: 0
# Processed by: cddbd v1.5.2PL0 Copyright (c) Steve Scherf et al.
# Submitted via: EZCDAudioConverter 1.3.4.1
#
DISCID=b60db90f
DTITLE=The Blues Magazine - In With The New (Killer Tracks To Kick Of 2014)
DYEAR=2014
DGENRE=Blues Magazine
TTITLE0=The Cadillac Three - Tenessee Mojo
TTITLE1=The Dirty Aces - Ain't No Forgettin'
TTITLE2=Buck and Evans - Going Home
TTITLE3=Willie and The Bandits - Son Of A Gun
TTITLE4=No Sinner - Boo Hoo Hoo
TTITLE5=The 45s - Devil Of A Woman
TTITLE6=Goldie Reed - Nobody
TTITLE7=Adam Sweet - I Work Alone
TTITLE8=Blues Pills - Devil Man
TTITLE9=Left Lane Cruiser - Jukebox
TTITLE10=Gerry Jablonski and The Electric Band - Slave To The Rhytm
TTITLE11=Brothers Groove - Duty Calls
TTITLE12=Hot Soles - Call The Regulator
TTITLE13=Long John Laundry - Holy Moly
TTITLE14=Rev Ferriday and The Longdogs - Going Home
EXTD=
EXTT0=
EXTT1=
EXTT2=
EXTT3=
EXTT4=
EXTT5=
EXTT6=
EXTT7=
EXTT8=
EXTT9=
EXTT10=
EXTT11=
EXTT12=
EXTT13=
EXTT14=
PLAYORDER=
